<svg xmlns="http://www.w3.org/2000/svg" viewBox="0 0 64 64">
  <!-- DataClear passport: a travel document for data, with a binary mark -->
  <rect width="64" height="64" rx="10" fill="#111A2C"/>
  <rect x="12" y="8" width="40" height="48" rx="7" fill="#1D5FD6"/>
  <rect x="14" y="10" width="36" height="44" rx="6" fill="#2F6FEB"/>
  <rect x="16" y="12" width="3" height="40" fill="#111A2C"/>
  <rect x="24" y="15" width="16" height="18" rx="3" fill="#1D5FD6"/>
  <circle cx="32" cy="22" r="3.5" fill="#0F172A"/>
  <path d="M27 34v-3c0-1.7 2.2-3 5-3s5 1.3 5 3v3z" fill="#0F172A"/>
  <path d="M26 42h4v10h-4zm0 0h5v2h-5z" fill="#0F172A"/>
  <path d="M33 42h9v10h-9zm2 2h5v6h-5z" fill="#2F6FEB"/>
  <rect x="24" y="52" width="18" height="1.5" fill="#111A2C"/>
</svg>
